<?xml version="1.0" encoding="iso-8859-1"?>
<!-- Generator: Adobe Illustrator 19.0.0, SVG Export Plug-In . SVG Version: 6.00 Build 0)  -->
<svg version="1.1" id="Capa_1" xmlns="http://www.w3.org/2000/svg" xmlns:xlink="http://www.w3.org/1999/xlink" x="0px" y="0px"
	 viewBox="0 0 512 512" style="enable-background:new 0 0 512 512;" xml:space="preserve">
<circle style="fill:#4B5568;" cx="256" cy="256" r="256"/>
<path style="fill:#323750;" d="M342.892,496.864c95.377-34.414,164.434-123.86,168.863-230.013L345.713,100.809L107.034,229.297
	l53.413,53.414l-4.805,7.485l51.805,51.805l-11.126,8.292L342.892,496.864z"/>
<rect x="107.03" y="100.81" style="fill:#FFDA00;" width="238.68" height="128.49"/>
<rect x="228.79" y="100.81" style="fill:#FFB600;" width="116.93" height="128.49"/>
<path style="fill:#FFF04A;" d="M228.927,229.297h116.786l-89.091-71.102c-17.022-15.924-43.475-15.924-60.498,0l-89.091,71.102
	h48.608v60.899L228.927,229.297z"/>
<path style="fill:#FFDA00;" d="M345.713,229.297l-89.091-71.102c-7.881-7.373-17.784-11.325-27.836-11.871v83.089l0.142-0.117
	h116.785V229.297z"/>
<path style="fill:#FFB600;" d="M107.034,100.809l86.21,71.257c18.643,15.41,47.616,15.41,66.259,0l86.21-71.257
	C345.713,100.809,107.034,100.809,107.034,100.809z"/>
<path style="fill:#FF9500;" d="M345.713,100.809H228.786v82.758c11.089-0.485,22.025-4.317,30.717-11.501L345.713,100.809z"/>
<rect x="196.32" y="221.8" style="fill:#4A7AFF;" width="238.68" height="128.49"/>
<rect x="312.71" y="221.8" style="fill:#3668D8;" width="122.29" height="128.49"/>
<path style="fill:#4A98F7;" d="M313.107,350.292H196.321l89.091-71.102c17.022-15.924,43.475-15.924,60.498,0L435,350.292h-48.608
	v60.899L313.107,350.292z"/>
<path style="fill:#4A7AFF;" d="M345.909,279.195c-9.281-8.682-21.365-12.619-33.195-11.834v82.936h0.392l73.285,60.899v-60.899H435
	L345.909,279.195z"/>
<path style="fill:#5A54E0;" d="M435,221.804l-86.21,71.257c-18.643,15.41-47.616,15.41-66.259,0l-86.21-71.257H435z"/>
<path style="fill:#3A41CC;" d="M312.714,221.804v82.726c12.868,0.688,25.984-3.128,36.076-11.469L435,221.804H312.714z"/>
<g>
</g>
<g>
</g>
<g>
</g>
<g>
</g>
<g>
</g>
<g>
</g>
<g>
</g>
<g>
</g>
<g>
</g>
<g>
</g>
<g>
</g>
<g>
</g>
<g>
</g>
<g>
</g>
<g>
</g>
</svg>
