<svg height="512pt" viewBox="0 0 512 512" width="512pt" xmlns="http://www.w3.org/2000/svg"><path d="m512 256c0 141.386719-114.613281 256-256 256s-256-114.613281-256-256 114.613281-256 256-256 256 114.613281 256 256zm0 0" fill="#ffd400"/><path d="m512 256c0-1.464844-.03125-2.921875-.054688-4.382812l-182.03125-182.027344-126.023437 52.386718 96.644531 96.644532-137.308594 203.8125 89.527344 89.527344c1.082032.011718 2.160156.039062 3.246094.039062 141.386719 0 256-114.613281 256-256zm0 0" fill="#fdba12"/><path d="m288.714844 135.871094c24.40625-12.070313 41.199218-37.210938 41.199218-66.28125h-147.828124c0 29.070312 16.792968 54.210937 41.199218 66.28125-67.585937 19.261718-118.140625 95.519531-118.140625 167.601562 0 48.332032 22.730469 91.351563 58.082031 118.960938h185.546876c35.351562-27.609375 58.082031-70.628906 58.082031-118.960938 0-72.082031-50.554688-148.339844-118.140625-167.601562zm0 0" fill="#fe6a16"/><path d="m288.714844 135.871094c24.40625-12.070313 41.199218-37.210938 41.199218-66.28125h-74.269531v352.84375h93.128907c35.351562-27.609375 58.085937-70.628906 58.085937-118.960938-.003906-72.082031-50.558594-148.339844-118.144531-167.601562zm0 0" fill="#f24500"/><path d="m310.777344 286.058594c-3.519532-6.320313-9.152344-11.617188-16.890625-15.886719s-20.542969-8.488281-38.429688-12.660156c-7.222656-1.628907-11.800781-3.390625-13.726562-5.28125-1.988281-1.824219-2.980469-3.875-2.980469-6.160157 0-3.128906 1.203125-5.78125 3.613281-7.96875 2.40625-2.179687 5.992188-3.273437 10.746094-3.273437 5.78125 0 10.3125 1.464844 13.59375 4.398437 3.28125 2.933594 5.429687 7.625 6.457031 14.078126l38.566406-2.445313c-1.6875-14.859375-6.972656-25.695313-15.851562-32.503906-4.671875-3.582031-10.488281-6.199219-17.382812-7.894531v-22.746094h-44.988282v22.949218c-3.273437.832032-6.261718 1.851563-8.890625 3.097657-7.917969 3.746093-13.847656 8.894531-17.792969 15.445312-3.941406 6.550781-5.914062 13.507813-5.914062 20.871094 0 11.210937 3.855469 20.433594 11.5625 27.667969 7.644531 7.234375 20.4375 13.035156 38.382812 17.402344 10.957032 2.609374 17.941407 5.378906 20.953126 8.3125 3.011718 2.929687 4.515624 6.253906 4.515624 9.96875 0 3.910156-1.578124 7.351562-4.742187 10.316406-3.160156 2.964844-7.660156 4.445312-13.503906 4.445312-7.824219 0-13.847657-2.898437-18.0625-8.699218-2.589844-3.585938-4.304688-8.800782-5.144531-15.640626l-38.929688 2.636719c1.144531 14.472657 6.050781 26.398438 14.722656 35.785157 5.15625 5.582031 12.785156 9.492187 22.84375 11.753906v23.164062h44.988282v-23.097656c3.9375-.953125 7.558593-2.199219 10.832031-3.753906 8.429687-4.011719 14.992187-9.890625 19.6875-17.648438 4.699219-7.753906 7.046875-16.230468 7.046875-25.417968 0-7.820313-1.757813-14.894532-5.28125-21.214844zm0 0" fill="#fff"/><g fill="#e9edf5"><path d="m266.703125 239.230469c3.28125 2.929687 5.433594 7.625 6.457031 14.078125l38.566406-2.445313c-1.6875-14.859375-6.96875-25.695312-15.851562-32.507812-4.671875-3.582031-10.484375-6.195313-17.382812-7.894531v-22.746094h-22.847657v47.226562c4.582031.378906 8.273438 1.800782 11.058594 4.289063zm0 0"/><path d="m310.777344 286.058594c-3.519532-6.320313-9.152344-11.617188-16.890625-15.886719-7.710938-4.253906-20.457031-8.457031-38.242188-12.617187v38.816406c8.21875 2.25 13.617188 4.609375 16.164063 7.089844 3.007812 2.933593 4.511718 6.257812 4.511718 9.972656 0 3.910156-1.578124 7.347656-4.742187 10.3125-3.160156 2.96875-7.660156 4.449218-13.5 4.449218-.835937 0-1.644531-.039062-2.433594-.105468v49.105468h22.847657v-23.101562c3.941406-.953125 7.558593-2.199219 10.835937-3.753906 8.429687-4.011719 14.992187-9.890625 19.6875-17.648438 4.699219-7.753906 7.042969-16.230468 7.042969-25.417968 0-7.820313-1.757813-14.894532-5.28125-21.214844zm0 0"/></g></svg>