<svg id="Layer_1" enable-background="new 0 0 512 512" height="512" viewBox="0 0 512 512" width="512" xmlns="http://www.w3.org/2000/svg"><g id="XMLID_209_"><g id="XMLID_96_"><g id="XMLID_97_"><g id="XMLID_843_"><g id="XMLID_844_"><g id="XMLID_845_"><g id="XMLID_846_"><g id="XMLID_847_"><g id="XMLID_848_"><g id="XMLID_849_"><g id="XMLID_850_"><g id="XMLID_1101_"><g id="XMLID_1170_"><g id="XMLID_1171_"><g id="XMLID_1172_"><circle id="XMLID_1173_" cx="256" cy="256" fill="#00e9f6" r="256"/></g></g></g></g></g></g></g></g></g></g></g></g></g></g><path id="XMLID_2177_" d="m512 256c0-27.767-4.438-54.493-12.614-79.53l-61.062-61.062c-6.744-7.203-37.855 17.362-63.558 43.915l-169.214 11.292-60.868-60.781-77.482 30 68.192 68.44 3.87 174.065 46.235 46.163c.608 8.557 4.215 13.822 4.215 13.822l69.909 69.63c139.712-1.94 252.377-115.78 252.377-255.954z" fill="#2ebff0"/><g id="XMLID_2222_"><g id="XMLID_2223_"><g id="XMLID_2320_"><g id="XMLID_2328_"><path id="XMLID_2329_" d="m365.473 327.82h-212.979l-16.248-170.68h271.224v128.682c0 23.196-18.803 41.998-41.997 41.998z" fill="#5c68e1"/></g><g id="XMLID_2326_"><path id="XMLID_2327_" d="m407.47 157.137v128.69c0 23.19-18.8 41.99-42 41.99h-93.61v-170.68z" fill="#00419c"/></g><g id="XMLID_2324_"><path id="XMLID_2325_" d="m407.47 382.339h-268.207l-21.983-242.505h-50.079v-30h77.483l21.983 242.505h240.803z" fill="#fff"/></g><g id="XMLID_2321_"><g id="XMLID_2322_"><path id="XMLID_2323_" d="m271.86 352.337h135.61v30h-135.61z" fill="#fff5ca"/></g></g></g><g id="XMLID_2224_"><g id="XMLID_2318_"><circle id="XMLID_2319_" cx="209.422" cy="422.579" fill="#797880" r="27.913"/></g><g id="XMLID_2225_"><circle id="XMLID_2317_" cx="336.806" cy="422.579" fill="#57545c" r="27.913"/></g></g></g></g><circle id="XMLID_2356_" cx="387.47" cy="163" fill="#ff9b00" r="69.667"/><path id="XMLID_1086_" d="m457.14 163c0 38.48-31.19 69.67-69.67 69.67v-139.34c38.48 0 69.67 31.19 69.67 69.67z" fill="#ff7600"/></g></svg>