<?xml version="1.0" encoding="iso-8859-1"?>
<!-- Generator: Adobe Illustrator 19.0.0, SVG Export Plug-In . SVG Version: 6.00 Build 0)  -->
<svg version="1.1" id="Capa_1" xmlns="http://www.w3.org/2000/svg" xmlns:xlink="http://www.w3.org/1999/xlink" x="0px" y="0px"
	 viewBox="0 0 512 512" style="enable-background:new 0 0 512 512;" xml:space="preserve">
<circle style="fill:#F40000;" cx="256" cy="256" r="256"/>
<path style="fill:#B70000;" d="M512,256c0-7.313-0.324-14.548-0.925-21.706L394.89,118.11L118.11,394.89l116.185,116.185
	C241.452,511.676,248.687,512,256,512C397.385,512,512,397.385,512,256z"/>
<path style="fill:#00ABE9;" d="M256,60C148.277,60,60,148.277,60,256s88.277,196,196,196s196-88.277,196-196S363.723,60,256,60z"/>
<path style="fill:#0095FF;" d="M452,256c0,107.723-88.277,196-196,196V60C363.723,60,452,148.277,452,256z"/>
<path style="fill:#E7E7E7;" d="M256,106.703c-82.229,0-149.297,67.068-149.297,149.297c0,82.227,67.068,149.297,149.297,149.297
	S405.297,338.227,405.297,256C405.297,173.771,338.229,106.703,256,106.703z"/>
<path style="fill:#D3D3D8;" d="M405.297,256c0,82.227-67.068,149.297-149.297,149.297V106.703
	C338.229,106.703,405.297,173.771,405.297,256z"/>
<polygon style="fill:#5A5A5A;" points="331.338,292.29 318.474,311.584 256,269.781 244.516,262.201 244.516,152.641 
	267.484,152.641 267.484,249.798 "/>
<polygon style="fill:#444444;" points="331.338,292.29 318.474,311.584 256,269.781 256,152.641 267.484,152.641 267.484,249.798 
	"/>
<g>
</g>
<g>
</g>
<g>
</g>
<g>
</g>
<g>
</g>
<g>
</g>
<g>
</g>
<g>
</g>
<g>
</g>
<g>
</g>
<g>
</g>
<g>
</g>
<g>
</g>
<g>
</g>
<g>
</g>
</svg>
